<svg width="30" height="30" viewBox="0 0 30 30" fill="none" xmlns="http://www.w3.org/2000/svg">
<path d="M24.7917 2.91667H21.875V1.45833C21.875 1.07156 21.7214 0.700626 21.4479 0.427136C21.1744 0.153645 20.8034 0 20.4167 0C20.0299 0 19.659 0.153645 19.3855 0.427136C19.112 0.700626 18.9583 1.07156 18.9583 1.45833V2.91667H10.2083V1.45833C10.2083 1.07156 10.0547 0.700626 9.7812 0.427136C9.50771 0.153645 9.13677 0 8.75 0C8.36323 0 7.99229 0.153645 7.7188 0.427136C7.44531 0.700626 7.29167 1.07156 7.29167 1.45833V2.91667H4.375C3.21468 2.91667 2.10188 3.3776 1.28141 4.19807C0.460936 5.01855 0 6.13134 0 7.29167V24.7917C0 25.952 0.460936 27.0648 1.28141 27.8853C2.10188 28.7057 3.21468 29.1667 4.375 29.1667H24.7917C25.952 29.1667 27.0648 28.7057 27.8853 27.8853C28.7057 27.0648 29.1667 25.952 29.1667 24.7917V7.29167C29.1667 6.13134 28.7057 5.01855 27.8853 4.19807C27.0648 3.3776 25.952 2.91667 24.7917 2.91667V2.91667ZM26.25 24.7917C26.25 25.1784 26.0964 25.5494 25.8229 25.8229C25.5494 26.0964 25.1784 26.25 24.7917 26.25H4.375C3.98823 26.25 3.61729 26.0964 3.3438 25.8229C3.07031 25.5494 2.91667 25.1784 2.91667 24.7917V14.5833H26.25V24.7917ZM26.25 11.6667H2.91667V7.29167C2.91667 6.90489 3.07031 6.53396 3.3438 6.26047C3.61729 5.98698 3.98823 5.83333 4.375 5.83333H7.29167V7.29167C7.29167 7.67844 7.44531 8.04937 7.7188 8.32286C7.99229 8.59635 8.36323 8.75 8.75 8.75C9.13677 8.75 9.50771 8.59635 9.7812 8.32286C10.0547 8.04937 10.2083 7.67844 10.2083 7.29167V5.83333H18.9583V7.29167C18.9583 7.67844 19.112 8.04937 19.3855 8.32286C19.659 8.59635 20.0299 8.75 20.4167 8.75C20.8034 8.75 21.1744 8.59635 21.4479 8.32286C21.7214 8.04937 21.875 7.67844 21.875 7.29167V5.83333H24.7917C25.1784 5.83333 25.5494 5.98698 25.8229 6.26047C26.0964 6.53396 26.25 6.90489 26.25 7.29167V11.6667Z" fill="#F9681E"/>
</svg>
