<svg width="20" height="25" viewBox="0 0 20 25" fill="none" xmlns="http://www.w3.org/2000/svg">
<path d="M20 8.675C19.987 8.56017 19.9618 8.44704 19.925 8.3375V8.225C19.8649 8.09647 19.7847 7.97833 19.6875 7.875V7.875L12.1875 0.375C12.0842 0.27777 11.966 0.197601 11.8375 0.1375H11.7125C11.591 0.0725038 11.4603 0.0261525 11.325 0H3.75C2.75544 0 1.80161 0.395088 1.09835 1.09835C0.395088 1.80161 0 2.75544 0 3.75V21.25C0 22.2446 0.395088 23.1984 1.09835 23.9017C1.80161 24.6049 2.75544 25 3.75 25H16.25C17.2446 25 18.1984 24.6049 18.9017 23.9017C19.6049 23.1984 20 22.2446 20 21.25V8.75C20 8.75 20 8.75 20 8.675ZM12.5 4.2625L15.7375 7.5H13.75C13.4185 7.5 13.1005 7.3683 12.8661 7.13388C12.6317 6.89946 12.5 6.58152 12.5 6.25V4.2625ZM17.5 21.25C17.5 21.5815 17.3683 21.8995 17.1339 22.1339C16.8995 22.3683 16.5815 22.5 16.25 22.5H3.75C3.41848 22.5 3.10054 22.3683 2.86612 22.1339C2.6317 21.8995 2.5 21.5815 2.5 21.25V3.75C2.5 3.41848 2.6317 3.10054 2.86612 2.86612C3.10054 2.6317 3.41848 2.5 3.75 2.5H10V6.25C10 7.24456 10.3951 8.19839 11.0983 8.90165C11.8016 9.60491 12.7554 10 13.75 10H17.5V21.25ZM11.6125 15.3625L11.25 15.7375V12.5C11.25 12.1685 11.1183 11.8505 10.8839 11.6161C10.6495 11.3817 10.3315 11.25 10 11.25C9.66848 11.25 9.35054 11.3817 9.11612 11.6161C8.8817 11.8505 8.75 12.1685 8.75 12.5V15.7375L8.3875 15.3625C8.15212 15.1271 7.83288 14.9949 7.5 14.9949C7.16712 14.9949 6.84788 15.1271 6.6125 15.3625C6.37712 15.5979 6.24489 15.9171 6.24489 16.25C6.24489 16.5829 6.37712 16.9021 6.6125 17.1375L9.1125 19.6375C9.23138 19.7513 9.37156 19.8405 9.525 19.9C9.67463 19.9661 9.83641 20.0003 10 20.0003C10.1636 20.0003 10.3254 19.9661 10.475 19.9C10.6284 19.8405 10.7686 19.7513 10.8875 19.6375L13.3875 17.1375C13.6229 16.9021 13.7551 16.5829 13.7551 16.25C13.7551 15.9171 13.6229 15.5979 13.3875 15.3625C13.1521 15.1271 12.8329 14.9949 12.5 14.9949C12.1671 14.9949 11.8479 15.1271 11.6125 15.3625V15.3625Z" fill="#F9681E"/>
</svg>
