<svg width="15" height="15" viewBox="0 0 15 15" fill="none" xmlns="http://www.w3.org/2000/svg">
<path d="M7.5 13.5H2.25C2.05109 13.5 1.86032 13.421 1.71967 13.2803C1.57902 13.1397 1.5 12.9489 1.5 12.75V2.25C1.5 2.05109 1.57902 1.86032 1.71967 1.71967C1.86032 1.57902 2.05109 1.5 2.25 1.5H6V3.75C6 4.34674 6.23705 4.91903 6.65901 5.34099C7.08097 5.76295 7.65326 6 8.25 6H10.5V6.75C10.5 6.94891 10.579 7.13968 10.7197 7.28033C10.8603 7.42098 11.0511 7.5 11.25 7.5C11.4489 7.5 11.6397 7.42098 11.7803 7.28033C11.921 7.13968 12 6.94891 12 6.75V5.25C12 5.25 12 5.25 12 5.205C11.9922 5.1361 11.9771 5.06822 11.955 5.0025V4.935C11.9189 4.85788 11.8708 4.787 11.8125 4.725V4.725L7.3125 0.225C7.2505 0.166662 7.17962 0.118561 7.1025 0.0824999C7.08011 0.0793201 7.05739 0.0793201 7.035 0.0824999C6.95881 0.0388059 6.87467 0.0107582 6.7875 0H2.25C1.65326 0 1.08097 0.237053 0.65901 0.65901C0.237053 1.08097 0 1.65326 0 2.25V12.75C0 13.3467 0.237053 13.919 0.65901 14.341C1.08097 14.7629 1.65326 15 2.25 15H7.5C7.69891 15 7.88968 14.921 8.03033 14.7803C8.17098 14.6397 8.25 14.4489 8.25 14.25C8.25 14.0511 8.17098 13.8603 8.03033 13.7197C7.88968 13.579 7.69891 13.5 7.5 13.5ZM7.5 2.5575L9.4425 4.5H8.25C8.05109 4.5 7.86032 4.42098 7.71967 4.28033C7.57902 4.13968 7.5 3.94891 7.5 3.75V2.5575ZM3.75 4.5C3.55109 4.5 3.36032 4.57902 3.21967 4.71967C3.07902 4.86032 3 5.05109 3 5.25C3 5.44891 3.07902 5.63968 3.21967 5.78033C3.36032 5.92098 3.55109 6 3.75 6H4.5C4.69891 6 4.88968 5.92098 5.03033 5.78033C5.17098 5.63968 5.25 5.44891 5.25 5.25C5.25 5.05109 5.17098 4.86032 5.03033 4.71967C4.88968 4.57902 4.69891 4.5 4.5 4.5H3.75ZM14.7825 13.7175L13.905 12.8475C14.1855 12.3579 14.2977 11.7899 14.2246 11.2305C14.1514 10.671 13.8969 10.151 13.5 9.75V9.75C13.1348 9.37175 12.6641 9.11227 12.1493 9.00536C11.6345 8.89844 11.0994 8.94905 10.6137 9.15059C10.1281 9.35213 9.71441 9.69526 9.42658 10.1353C9.13874 10.5753 8.99009 11.0918 9 11.6175C8.99742 12.0699 9.11315 12.5151 9.33572 12.909C9.55828 13.3028 9.87994 13.6317 10.2688 13.8628C10.6577 14.094 11.1002 14.2196 11.5525 14.227C12.0049 14.2343 12.4513 14.1234 12.8475 13.905L13.7175 14.7825C13.7872 14.8528 13.8702 14.9086 13.9616 14.9467C14.053 14.9847 14.151 15.0043 14.25 15.0043C14.349 15.0043 14.447 14.9847 14.5384 14.9467C14.6298 14.9086 14.7128 14.8528 14.7825 14.7825C14.8528 14.7128 14.9086 14.6298 14.9467 14.5384C14.9847 14.447 15.0043 14.349 15.0043 14.25C15.0043 14.151 14.9847 14.053 14.9467 13.9616C14.9086 13.8702 14.8528 13.7872 14.7825 13.7175V13.7175ZM12.405 12.405C12.1908 12.6064 11.9078 12.7186 11.6138 12.7186C11.3197 12.7186 11.0367 12.6064 10.8225 12.405C10.616 12.1949 10.5002 11.9121 10.5 11.6175C10.4984 11.4696 10.5269 11.3229 10.5836 11.1862C10.6403 11.0496 10.7241 10.9258 10.83 10.8225C11.03 10.6236 11.2981 10.5083 11.58 10.5C11.7316 10.4907 11.8836 10.5128 12.0262 10.565C12.1689 10.6171 12.2993 10.6982 12.4091 10.8032C12.519 10.9081 12.606 11.0346 12.6646 11.1747C12.7233 11.3149 12.7524 11.4656 12.75 11.6175C12.7438 11.9153 12.6197 12.1985 12.405 12.405V12.405ZM8.25 7.5H3.75C3.55109 7.5 3.36032 7.57902 3.21967 7.71967C3.07902 7.86032 3 8.05109 3 8.25C3 8.44891 3.07902 8.63968 3.21967 8.78033C3.36032 8.92098 3.55109 9 3.75 9H8.25C8.44891 9 8.63968 8.92098 8.78033 8.78033C8.92098 8.63968 9 8.44891 9 8.25C9 8.05109 8.92098 7.86032 8.78033 7.71967C8.63968 7.57902 8.44891 7.5 8.25 7.5ZM6.75 12C6.94891 12 7.13968 11.921 7.28033 11.7803C7.42098 11.6397 7.5 11.4489 7.5 11.25C7.5 11.0511 7.42098 10.8603 7.28033 10.7197C7.13968 10.579 6.94891 10.5 6.75 10.5H3.75C3.55109 10.5 3.36032 10.579 3.21967 10.7197C3.07902 10.8603 3 11.0511 3 11.25C3 11.4489 3.07902 11.6397 3.21967 11.7803C3.36032 11.921 3.55109 12 3.75 12H6.75Z" fill="#F9681E"/>
</svg>
