<svg width="16" height="16" viewBox="0 0 16 16" fill="none" xmlns="http://www.w3.org/2000/svg">
<path d="M13.3334 5.95999C13.3265 5.89875 13.3131 5.83842 13.2934 5.77999V5.72C13.2614 5.65145 13.2186 5.58844 13.1667 5.53333L9.16675 1.53333C9.11164 1.48147 9.04863 1.43872 8.98008 1.40666H8.91341C8.84859 1.372 8.77892 1.34728 8.70675 1.33333H4.66675C4.13631 1.33333 3.62761 1.54404 3.25253 1.91911C2.87746 2.29419 2.66675 2.8029 2.66675 3.33333V12.6667C2.66675 13.1971 2.87746 13.7058 3.25253 14.0809C3.62761 14.4559 4.13631 14.6667 4.66675 14.6667H11.3334C11.8638 14.6667 12.3726 14.4559 12.7476 14.0809C13.1227 13.7058 13.3334 13.1971 13.3334 12.6667V6C13.3334 6 13.3334 5.99999 13.3334 5.95999ZM9.33341 3.60666L11.0601 5.33333H10.0001C9.82327 5.33333 9.6537 5.26309 9.52868 5.13807C9.40365 5.01304 9.33341 4.84347 9.33341 4.66666V3.60666ZM12.0001 12.6667C12.0001 12.8435 11.9298 13.013 11.8048 13.1381C11.6798 13.2631 11.5102 13.3333 11.3334 13.3333H4.66675C4.48994 13.3333 4.32037 13.2631 4.19534 13.1381C4.07032 13.013 4.00008 12.8435 4.00008 12.6667V3.33333C4.00008 3.15652 4.07032 2.98695 4.19534 2.86192C4.32037 2.7369 4.48994 2.66666 4.66675 2.66666H8.00008V4.66666C8.00008 5.19709 8.21079 5.7058 8.58587 6.08088C8.96094 6.45595 9.46965 6.66666 10.0001 6.66666H12.0001V12.6667ZM8.86008 9.52666L8.66675 9.72666V8C8.66675 7.82318 8.59651 7.65361 8.47149 7.52859C8.34646 7.40357 8.17689 7.33333 8.00008 7.33333C7.82327 7.33333 7.6537 7.40357 7.52868 7.52859C7.40365 7.65361 7.33341 7.82318 7.33341 8V9.72666L7.14008 9.52666C7.01455 9.40113 6.84428 9.3306 6.66675 9.3306C6.48921 9.3306 6.31895 9.40113 6.19341 9.52666C6.06788 9.6522 5.99735 9.82246 5.99735 10C5.99735 10.1775 6.06788 10.3478 6.19341 10.4733L7.52675 11.8067C7.59015 11.8674 7.66491 11.9149 7.74675 11.9467C7.82655 11.9819 7.91283 12.0002 8.00008 12.0002C8.08733 12.0002 8.17361 11.9819 8.25341 11.9467C8.33525 11.9149 8.41001 11.8674 8.47341 11.8067L9.80675 10.4733C9.93228 10.3478 10.0028 10.1775 10.0028 10C10.0028 9.82246 9.93228 9.6522 9.80675 9.52666C9.68121 9.40113 9.51095 9.3306 9.33341 9.3306C9.15588 9.3306 8.98562 9.40113 8.86008 9.52666Z" fill="#F9681E"/>
</svg>
