<svg width="10" height="7" viewBox="0 0 10 7" fill="none" xmlns="http://www.w3.org/2000/svg">
<path d="M3.40954 4.59079L7.69954 0.290792C7.88691 0.104542 8.14036 0 8.40454 0C8.66873 0 8.92218 0.104542 9.10954 0.290792C9.20327 0.383755 9.27767 0.494356 9.32844 0.616216C9.3792 0.738075 9.40534 0.868781 9.40534 1.00079C9.40534 1.1328 9.3792 1.26351 9.32844 1.38537C9.27767 1.50723 9.20327 1.61783 9.10954 1.71079L4.10954 6.71079C3.92328 6.89554 3.67188 6.99969 3.40954 7.00079C3.27794 7.00155 3.14747 6.97633 3.02564 6.92656C2.9038 6.8768 2.79298 6.80347 2.69954 6.71079L0.349543 4.35079C0.244862 4.26115 0.159841 4.15083 0.0998181 4.02676C0.0397948 3.9027 0.00606467 3.76756 0.000745179 3.62985C-0.00457431 3.49213 0.0186316 3.35479 0.0689062 3.22647C0.119181 3.09815 0.195439 2.9816 0.292893 2.88414C0.390348 2.78669 0.506895 2.71043 0.63522 2.66016C0.763546 2.60988 0.900878 2.58667 1.0386 2.59199C1.17632 2.59731 1.31145 2.63104 1.43551 2.69107C1.55958 2.75109 1.6699 2.83611 1.75954 2.94079L3.40954 4.59079Z" fill="#F9681E"/>
</svg>
