<svg width="30" height="30" viewBox="0 0 30 30" fill="none" xmlns="http://www.w3.org/2000/svg">
<path d="M14.6097 0.00077121C12.3754 -0.00327117 10.17 0.50614 8.1638 1.48969C6.15758 2.47323 4.4042 3.90461 3.03897 5.67334C1.67374 7.44207 0.733187 9.50085 0.289897 11.6908C-0.153392 13.8807 -0.0875588 16.1432 0.482316 18.3036C1.05219 20.464 2.11087 22.4647 3.57663 24.151C5.04239 25.8374 6.87604 27.1644 8.93605 28.0296C10.9961 28.8948 13.2273 29.2751 15.4576 29.1412C17.688 29.0072 19.8577 28.3626 21.7993 27.257H21.9014H21.9743C24.782 25.6587 26.9794 23.1733 28.2217 20.191C29.464 17.2087 29.6808 13.8982 28.8381 10.7794C27.9954 7.66048 26.1409 4.90972 23.5656 2.95888C20.9904 1.00803 17.8403 -0.0324431 14.6097 0.00077121V0.00077121ZM16.0681 3.01952C18.6347 3.34501 21.0204 4.51445 22.8499 6.34392C24.6794 8.17338 25.8488 10.5591 26.1743 13.1258H16.0681V3.01952ZM14.6097 26.2508C11.6559 26.2306 8.81964 25.0907 6.67338 23.0612C4.52712 21.0316 3.23064 18.2634 3.04557 15.3153C2.86051 12.3672 3.80063 9.45864 5.67623 7.17659C7.55183 4.89454 10.2232 3.40892 13.1514 3.01952V14.5841C13.1571 14.7587 13.1916 14.9311 13.2535 15.0945V15.2112V15.3133L19.0868 25.332C17.6718 25.9376 16.1488 26.2502 14.6097 26.2508V26.2508ZM21.6535 23.8591L17.1326 16.0424H26.1743C25.978 17.5804 25.477 19.0638 24.7008 20.4059C23.9246 21.748 22.8886 22.922 21.6535 23.8591Z" fill="#F9681E"/>
</svg>
