<svg width="30" height="30" viewBox="0 0 30 30" fill="none" xmlns="http://www.w3.org/2000/svg">
<path d="M1.45833 10.2083C1.84511 10.2083 2.21604 10.0547 2.48953 9.7812C2.76302 9.50771 2.91667 9.13677 2.91667 8.75V4.375C2.91667 3.98823 3.07031 3.61729 3.3438 3.3438C3.61729 3.07031 3.98823 2.91667 4.375 2.91667H8.75C9.13677 2.91667 9.50771 2.76302 9.7812 2.48953C10.0547 2.21604 10.2083 1.84511 10.2083 1.45833C10.2083 1.07156 10.0547 0.700626 9.7812 0.427136C9.50771 0.153645 9.13677 0 8.75 0H4.375C3.21468 0 2.10188 0.460936 1.28141 1.28141C0.460936 2.10188 0 3.21468 0 4.375V8.75C0 9.13677 0.153645 9.50771 0.427136 9.7812C0.700626 10.0547 1.07156 10.2083 1.45833 10.2083ZM8.75 26.25H4.375C3.98823 26.25 3.61729 26.0964 3.3438 25.8229C3.07031 25.5494 2.91667 25.1784 2.91667 24.7917V20.4167C2.91667 20.0299 2.76302 19.659 2.48953 19.3855C2.21604 19.112 1.84511 18.9583 1.45833 18.9583C1.07156 18.9583 0.700626 19.112 0.427136 19.3855C0.153645 19.659 0 20.0299 0 20.4167V24.7917C0 25.952 0.460936 27.0648 1.28141 27.8853C2.10188 28.7057 3.21468 29.1667 4.375 29.1667H8.75C9.13677 29.1667 9.50771 29.013 9.7812 28.7395C10.0547 28.466 10.2083 28.0951 10.2083 27.7083C10.2083 27.3216 10.0547 26.9506 9.7812 26.6771C9.50771 26.4036 9.13677 26.25 8.75 26.25V26.25ZM21.875 16.0417C22.2618 16.0417 22.6327 15.888 22.9062 15.6145C23.1797 15.341 23.3333 14.9701 23.3333 14.5833C23.3333 14.1966 23.1797 13.8256 22.9062 13.5521C22.6327 13.2786 22.2618 13.125 21.875 13.125H20.2125C19.9506 12.1219 19.4262 11.2067 18.6931 10.4736C17.96 9.74049 17.0448 9.21602 16.0417 8.95417V7.29167C16.0417 6.90489 15.888 6.53396 15.6145 6.26047C15.341 5.98698 14.9701 5.83333 14.5833 5.83333C14.1966 5.83333 13.8256 5.98698 13.5521 6.26047C13.2786 6.53396 13.125 6.90489 13.125 7.29167V8.95417C12.1219 9.21602 11.2067 9.74049 10.4736 10.4736C9.74049 11.2067 9.21602 12.1219 8.95417 13.125H7.29167C6.90489 13.125 6.53396 13.2786 6.26047 13.5521C5.98698 13.8256 5.83333 14.1966 5.83333 14.5833C5.83333 14.9701 5.98698 15.341 6.26047 15.6145C6.53396 15.888 6.90489 16.0417 7.29167 16.0417H8.95417C9.21602 17.0448 9.74049 17.96 10.4736 18.6931C11.2067 19.4262 12.1219 19.9506 13.125 20.2125V21.875C13.125 22.2618 13.2786 22.6327 13.5521 22.9062C13.8256 23.1797 14.1966 23.3333 14.5833 23.3333C14.9701 23.3333 15.341 23.1797 15.6145 22.9062C15.888 22.6327 16.0417 22.2618 16.0417 21.875V20.2125C17.0448 19.9506 17.96 19.4262 18.6931 18.6931C19.4262 17.96 19.9506 17.0448 20.2125 16.0417H21.875ZM14.5833 17.5C14.0065 17.5 13.4426 17.3289 12.9629 17.0085C12.4833 16.688 12.1094 16.2324 11.8887 15.6995C11.6679 15.1665 11.6102 14.5801 11.7227 14.0143C11.8352 13.4485 12.113 12.9288 12.5209 12.5209C12.9288 12.113 13.4485 11.8352 14.0143 11.7227C14.5801 11.6102 15.1665 11.6679 15.6995 11.8887C16.2324 12.1094 16.688 12.4833 17.0085 12.9629C17.3289 13.4426 17.5 14.0065 17.5 14.5833C17.5 15.3569 17.1927 16.0987 16.6457 16.6457C16.0987 17.1927 15.3569 17.5 14.5833 17.5ZM27.7083 18.9583C27.3216 18.9583 26.9506 19.112 26.6771 19.3855C26.4036 19.659 26.25 20.0299 26.25 20.4167V24.7917C26.25 25.1784 26.0964 25.5494 25.8229 25.8229C25.5494 26.0964 25.1784 26.25 24.7917 26.25H20.4167C20.0299 26.25 19.659 26.4036 19.3855 26.6771C19.112 26.9506 18.9583 27.3216 18.9583 27.7083C18.9583 28.0951 19.112 28.466 19.3855 28.7395C19.659 29.013 20.0299 29.1667 20.4167 29.1667H24.7917C25.952 29.1667 27.0648 28.7057 27.8853 27.8853C28.7057 27.0648 29.1667 25.952 29.1667 24.7917V20.4167C29.1667 20.0299 29.013 19.659 28.7395 19.3855C28.466 19.112 28.0951 18.9583 27.7083 18.9583ZM24.7917 0H20.4167C20.0299 0 19.659 0.153645 19.3855 0.427136C19.112 0.700626 18.9583 1.07156 18.9583 1.45833C18.9583 1.84511 19.112 2.21604 19.3855 2.48953C19.659 2.76302 20.0299 2.91667 20.4167 2.91667H24.7917C25.1784 2.91667 25.5494 3.07031 25.8229 3.3438C26.0964 3.61729 26.25 3.98823 26.25 4.375V8.75C26.25 9.13677 26.4036 9.50771 26.6771 9.7812C26.9506 10.0547 27.3216 10.2083 27.7083 10.2083C28.0951 10.2083 28.466 10.0547 28.7395 9.7812C29.013 9.50771 29.1667 9.13677 29.1667 8.75V4.375C29.1667 3.21468 28.7057 2.10188 27.8853 1.28141C27.0648 0.460936 25.952 0 24.7917 0Z" fill="#F9681E"/>
</svg>
