<svg width="10" height="10" viewBox="0 0 10 10" fill="none" xmlns="http://www.w3.org/2000/svg">
<path d="M11.0041 10C10.7389 10 10.4845 9.89464 10.297 9.7071C10.1094 9.51957 10.0041 9.26521 10.0041 9V1.41L1.71409 9.71C1.52579 9.8983 1.27039 10.0041 1.00409 10.0041C0.73779 10.0041 0.482395 9.8983 0.294092 9.71C0.105788 9.52169 1.9841e-09 9.2663 0 9C-1.9841e-09 8.7337 0.105788 8.4783 0.294092 8.29L8.59409 -1.90735e-06H1.00409C0.738875 -1.90735e-06 0.484522 -0.105358 0.296985 -0.292894C0.109449 -0.480431 0.00409174 -0.734785 0.00409174 -1C0.00409174 -1.26522 0.109449 -1.51957 0.296985 -1.70711C0.484522 -1.89465 0.738875 -2 1.00409 -2H11.0041C11.1348 -1.99842 11.2639 -1.97124 11.3841 -1.92C11.6284 -1.81853 11.8226 -1.62435 11.9241 -1.38C11.9753 -1.25978 12.0025 -1.13068 12.0041 -1V9C12.0041 9.26521 11.8987 9.51957 11.7112 9.7071C11.5237 9.89464 11.2693 10 11.0041 10Z" fill="#F9681E"/>
</svg>
