<svg width="30" height="30" viewBox="0 0 30 30" fill="none" xmlns="http://www.w3.org/2000/svg">
<path d="M28.175 11.0104L25.4188 10.0917L26.7167 7.49584C26.8482 7.22413 26.8923 6.91829 26.8426 6.62051C26.793 6.32273 26.6522 6.04769 26.4396 5.83334L23.3333 2.72709C23.1178 2.51138 22.8402 2.36864 22.5393 2.31894C22.2385 2.26924 21.9297 2.31507 21.6563 2.45001L19.0604 3.74792L18.1417 0.991672C18.0446 0.704369 17.8605 0.454459 17.6148 0.276721C17.3691 0.0989825 17.0741 0.00225702 16.7708 4.86141e-06H12.3958C12.0901 -0.000784333 11.7919 0.0945325 11.5433 0.272483C11.2946 0.450433 11.1083 0.702016 11.0104 0.991672L10.0917 3.74792L7.49584 2.45001C7.22413 2.31843 6.91829 2.27443 6.62051 2.32406C6.32273 2.37369 6.04769 2.51451 5.83334 2.72709L2.72709 5.83334C2.51138 6.04883 2.36864 6.32651 2.31894 6.62734C2.26924 6.92816 2.31507 7.237 2.45001 7.51042L3.74792 10.1063L0.991672 11.025C0.704369 11.122 0.454459 11.3062 0.276721 11.5519C0.0989825 11.7976 0.00225702 12.0926 4.86141e-06 12.3958V16.7708C-0.000784333 17.0766 0.0945325 17.3748 0.272483 17.6234C0.450433 17.872 0.702016 18.0584 0.991672 18.1563L3.74792 19.075L2.45001 21.6708C2.31843 21.9425 2.27443 22.2484 2.32406 22.5462C2.37369 22.844 2.51451 23.119 2.72709 23.3333L5.83334 26.4396C6.04883 26.6553 6.32651 26.798 6.62734 26.8477C6.92816 26.8974 7.237 26.8516 7.51042 26.7167L10.1063 25.4188L11.025 28.175C11.1228 28.4647 11.3092 28.7162 11.5578 28.8942C11.8064 29.0721 12.1047 29.1675 12.4104 29.1667H16.7854C17.0912 29.1675 17.3894 29.0721 17.638 28.8942C17.8866 28.7162 18.073 28.4647 18.1708 28.175L19.0896 25.4188L21.6854 26.7167C21.9554 26.8449 22.2583 26.8871 22.553 26.8376C22.8478 26.788 23.1202 26.6491 23.3333 26.4396L26.4396 23.3333C26.6553 23.1178 26.798 22.8402 26.8477 22.5393C26.8974 22.2385 26.8516 21.9297 26.7167 21.6563L25.4188 19.0604L28.175 18.1417C28.4623 18.0446 28.7122 17.8605 28.89 17.6148C29.0677 17.3691 29.1644 17.0741 29.1667 16.7708V12.3958C29.1675 12.0901 29.0721 11.7919 28.8942 11.5433C28.7162 11.2946 28.4647 11.1083 28.175 11.0104ZM26.25 15.7208L24.5 16.3042C24.0976 16.4347 23.7284 16.6512 23.418 16.9387C23.1076 17.2262 22.8635 17.5777 22.7026 17.969C22.5416 18.3602 22.4677 18.7818 22.486 19.2045C22.5042 19.6271 22.6142 20.0408 22.8083 20.4167L23.6396 22.0792L22.0354 23.6833L20.4167 22.8083C20.0427 22.622 19.633 22.5182 19.2155 22.504C18.7979 22.4897 18.3821 22.5654 17.9963 22.7258C17.6105 22.8862 17.2637 23.1276 16.9793 23.4337C16.6949 23.7398 16.4796 24.1035 16.3479 24.5L15.7646 26.25H13.4458L12.8625 24.5C12.732 24.0976 12.5155 23.7284 12.228 23.418C11.9405 23.1076 11.589 22.8635 11.1977 22.7026C10.8065 22.5416 10.3849 22.4677 9.96221 22.486C9.53954 22.5042 9.12591 22.6142 8.75001 22.8083L7.08751 23.6396L5.48334 22.0354L6.35834 20.4167C6.55243 20.0408 6.66243 19.6271 6.6807 19.2045C6.69896 18.7818 6.62506 18.3602 6.46412 17.969C6.30318 17.5777 6.05906 17.2262 5.74867 16.9387C5.43829 16.6512 5.06909 16.4347 4.66667 16.3042L2.91667 15.7208V13.4458L4.66667 12.8625C5.06909 12.732 5.43829 12.5155 5.74867 12.228C6.05906 11.9405 6.30318 11.589 6.46412 11.1977C6.62506 10.8065 6.69896 10.3849 6.6807 9.96221C6.66243 9.53954 6.55243 9.12591 6.35834 8.75001L5.52709 7.13125L7.13125 5.52709L8.75001 6.35834C9.12591 6.55243 9.53954 6.66243 9.96221 6.6807C10.3849 6.69896 10.8065 6.62506 11.1977 6.46412C11.589 6.30318 11.9405 6.05906 12.228 5.74867C12.5155 5.43829 12.732 5.06909 12.8625 4.66667L13.4458 2.91667H15.7208L16.3042 4.66667C16.4347 5.06909 16.6512 5.43829 16.9387 5.74867C17.2262 6.05906 17.5777 6.30318 17.969 6.46412C18.3602 6.62506 18.7818 6.69896 19.2045 6.6807C19.6271 6.66243 20.0408 6.55243 20.4167 6.35834L22.0792 5.52709L23.6833 7.13125L22.8083 8.75001C22.622 9.12399 22.5182 9.53364 22.504 9.95122C22.4897 10.3688 22.5654 10.7846 22.7258 11.1704C22.8862 11.5562 23.1276 11.903 23.4337 12.1874C23.7398 12.4718 24.1035 12.6871 24.5 12.8188L26.25 13.4021V15.7208ZM14.5833 8.75001C13.4296 8.75001 12.3018 9.09212 11.3425 9.7331C10.3832 10.3741 9.63555 11.2851 9.19404 12.351C8.75253 13.4169 8.63701 14.5898 8.86209 15.7214C9.08717 16.8529 9.64274 17.8923 10.4585 18.7081C11.2744 19.5239 12.3138 20.0795 13.4453 20.3046C14.5769 20.5297 15.7498 20.4141 16.8157 19.9726C17.8816 19.5311 18.7926 18.7835 19.4336 17.8242C20.0746 16.8649 20.4167 15.7371 20.4167 14.5833C20.4167 13.0362 19.8021 11.5525 18.7081 10.4585C17.6142 9.36459 16.1304 8.75001 14.5833 8.75001V8.75001ZM14.5833 17.5C14.0065 17.5 13.4426 17.3289 12.9629 17.0085C12.4833 16.688 12.1094 16.2324 11.8887 15.6995C11.6679 15.1665 11.6102 14.5801 11.7227 14.0143C11.8353 13.4485 12.113 12.9288 12.5209 12.5209C12.9288 12.113 13.4485 11.8353 14.0143 11.7227C14.5801 11.6102 15.1665 11.6679 15.6995 11.8887C16.2324 12.1094 16.688 12.4833 17.0085 12.9629C17.3289 13.4426 17.5 14.0065 17.5 14.5833C17.5 15.3569 17.1927 16.0988 16.6457 16.6457C16.0988 17.1927 15.3569 17.5 14.5833 17.5Z" fill="#F9681E"/>
</svg>
