<svg width="20" height="21" viewBox="0 0 20 21" fill="none" xmlns="http://www.w3.org/2000/svg">
<path d="M19.8667 9.37349C19.7873 9.1689 19.6684 8.98199 19.5167 8.82349L11.1833 0.490153C11.0279 0.334755 10.8435 0.211488 10.6404 0.127387C10.4374 0.0432865 10.2198 0 10 0C9.55616 0 9.13051 0.176313 8.81667 0.490153C8.66127 0.64555 8.538 0.830034 8.4539 1.03307C8.3698 1.23611 8.32651 1.45372 8.32651 1.67349C8.32651 2.11732 8.50283 2.54298 8.81667 2.85682L14.3167 8.34015H1.66667C1.22464 8.34015 0.800716 8.51575 0.488156 8.82831C0.175595 9.14087 0 9.56479 0 10.0068C0 10.4488 0.175595 10.8728 0.488156 11.1853C0.800716 11.4979 1.22464 11.6735 1.66667 11.6735H14.3167L8.81667 17.1568C8.66045 17.3118 8.53646 17.4961 8.45185 17.6992C8.36723 17.9023 8.32367 18.1201 8.32367 18.3402C8.32367 18.5602 8.36723 18.778 8.45185 18.9811C8.53646 19.1842 8.66045 19.3685 8.81667 19.5235C8.9716 19.6797 9.15594 19.8037 9.35904 19.8883C9.56214 19.9729 9.77998 20.0165 10 20.0165C10.22 20.0165 10.4379 19.9729 10.641 19.8883C10.8441 19.8037 11.0284 19.6797 11.1833 19.5235L19.5167 11.1902C19.6684 11.0316 19.7873 10.8447 19.8667 10.6402C20.0334 10.2344 20.0334 9.77926 19.8667 9.37349Z" fill="#F9681E"/>
</svg>
