<svg width="25" height="25" viewBox="0 0 25 25" fill="none" xmlns="http://www.w3.org/2000/svg">
<path d="M11.9792 25H13.0208C18.6875 25 21.5104 25 23.2604 23.25C25 21.5 25 18.6667 25 13.0208V11.9583C25 6.33333 25 3.5 23.2604 1.75C21.5104 0 18.6771 0 13.0208 0H11.9792C6.3125 0 3.48958 0 1.73958 1.75C0 3.5 0 6.33333 0 11.9792V13.0417C0 18.6667 0 21.5 1.75 23.25C3.5 25 6.33333 25 11.9792 25Z" fill="#0077FF"/>
<path d="M13.3021 18.0104C7.60417 18.0104 4.35417 14.1042 4.21876 7.60417H7.07292C7.16667 12.375 9.27084 14.3958 10.9375 14.8125V7.60417H13.625V11.7188C15.2708 11.5417 17 9.66667 17.5833 7.60417H20.2708C20.051 8.67384 19.6129 9.68665 18.9837 10.5792C18.3546 11.4718 17.5481 12.225 16.6146 12.7917C17.6566 13.3094 18.577 14.0423 19.3149 14.9419C20.0529 15.8415 20.5917 16.8873 20.8958 18.0104H17.9375C17.6645 17.0349 17.1097 16.1617 16.3425 15.5002C15.5754 14.8386 14.63 14.4182 13.625 14.2917V18.0104H13.3021Z" fill="white"/>
</svg>
