<svg width="25" height="25" viewBox="0 0 25 25" fill="none" xmlns="http://www.w3.org/2000/svg">
<path d="M0 25L1.75166 18.5775C0.671544 16.6938 0.10343 14.5601 0.103828 12.3888C0.103828 5.56152 5.63144 0 12.417 0C15.7127 0 18.8007 1.29256 21.1358 3.62904C22.2833 4.78036 23.1926 6.14666 23.8115 7.64974C24.4305 9.15283 24.747 10.7632 24.7429 12.3888C24.7429 19.2167 19.216 24.7782 12.4297 24.7782C10.3673 24.7782 8.34299 24.2555 6.53906 23.2639L0 25Z" fill="url(#paint0_linear_243_1544)"/>
<path fill-rule="evenodd" clip-rule="evenodd" d="M9.23789 7.01017C9.0048 6.47478 8.74488 6.46207 8.52451 6.46207C8.32957 6.44865 8.12191 6.44865 7.90154 6.44865C7.69388 6.44865 7.34355 6.52705 7.04549 6.85337C6.74672 7.17969 5.92951 7.95028 5.92951 9.5303C5.92951 11.1096 7.07162 12.6374 7.22701 12.8457C7.3824 13.0548 9.43283 16.3971 12.6762 17.6896C15.3751 18.7597 15.9203 18.5513 16.5045 18.4857C17.0879 18.4207 18.3854 17.7158 18.658 16.9579C18.9172 16.2142 18.9172 15.5615 18.8395 15.4309C18.7618 15.3002 18.5408 15.2218 18.2293 15.0523C17.9051 14.8955 16.3484 14.1129 16.0496 14.0076C15.7515 13.9031 15.5439 13.8508 15.3362 14.1644C15.1285 14.4907 14.519 15.2091 14.3241 15.4174C14.1425 15.6265 13.9483 15.6526 13.6368 15.4958C13.3119 15.3397 12.2878 15 11.0672 13.9031C10.1208 13.0548 9.4851 11.9975 9.29015 11.6839C9.10863 11.3575 9.26402 11.188 9.43283 11.0312C9.57551 10.8878 9.75774 10.6526 9.91312 10.4697C10.0685 10.2868 10.1201 10.1434 10.2373 9.93431C10.3412 9.72595 10.2889 9.52959 10.2112 9.3735C10.1335 9.22941 9.52324 7.65009 9.23789 7.01017Z" fill="white"/>
<defs>
<linearGradient id="paint0_linear_243_1544" x1="12.369" y1="24.9986" x2="12.369" y2="-0.0049449" gradientUnits="userSpaceOnUse">
<stop stop-color="#20B038"/>
<stop offset="1" stop-color="#60D66A"/>
</linearGradient>
</defs>
</svg>
